# xmcd
#
# Track frame offsets: 
#        150
#        15542
#        32867
#        53342
#        76392
#        92233
#        101998
#        125002
#        148146
#        164972
#        185855
#        209290
#        219415
#        229575
#        252750
#        274113
#        298025
#        311769
#
# Disc length: 4460 seconds
#
# Revision: 0
# Processed by: cddbd v1.5.2PL0 Copyright (c) Steve Scherf et al.
# Submitted via: ExactAudioCopy v0.90b4
#
DISCID=14116a12
DTITLE=Williams and Bray - Bluegrass Hoedown
DYEAR=2003
DGENRE=Bluegrass
TTITLE0=Dance All Night With a Bottle in Your Hand
TTITLE1=Glise de Sherbrooke
TTITLE2=Old Joe Clark
TTITLE3=Chinese Breakdown
TTITLE4=Jenny Lind Polka
TTITLE5=Tenessee Grey Eagle
TTITLE6=Sugar in the Gourd
TTITLE7=Sam and Elzie
TTITLE8=Beethoven's Favorite Waltz
TTITLE9=Cheat or Swing
TTITLE10=Redwing
TTITLE11=Cock of the North
TTITLE12=Leather Britches
TTITLE13=Arkansas Traveler
TTITLE14=Golden Slippers
TTITLE15=Chinky Pin
TTITLE16=Sweet Bunch of Daisies
TTITLE17=Turkey in the Straw
EXTD=
EXTT0=
EXTT1=
EXTT2=
EXTT3=
EXTT4=
EXTT5=
EXTT6=
EXTT7=
EXTT8=
EXTT9=
EXTT10=
EXTT11=
EXTT12=
EXTT13=
EXTT14=
EXTT15=
EXTT16=
EXTT17=
PLAYORDER=
